<?xml version="1.0" encoding="UTF-8"?>
<svg version="1.1" xmlns="http://www.w3.org/2000/svg" width="800" height="800">
<path d="M0 0 C33 0 66 0 100 0 C101.33332095 2.6666419 100.67102033 4.16680303 100 7 C97.14554531 7.9514849 95.78275636 8.03133099 92.875 7.875 C86.40681302 7.82232747 81.16681717 9.29420776 76.0625 13.3125 C71.42645962 19.3534011 71.72139103 25.58302899 71.77294922 32.87060547 C71.77265717 33.95412796 71.77236511 35.03765045 71.77206421 36.15400696 C71.77345434 39.72514941 71.78900091 43.29608162 71.8046875 46.8671875 C71.80841875 49.34725836 71.81126519 51.8273307 71.81326294 54.30740356 C71.82089056 60.82743415 71.8405317 67.3473753 71.8626709 73.86737061 C71.88423186 80.52354241 71.89226866 87.17974027 71.90234375 93.8359375 C71.9237783 106.8906631 71.95751811 119.94532679 72 133 C72.6068161 132.2532048 73.2136322 131.50640961 73.83883667 130.73698425 C74.64080475 129.75281021 75.44277283 128.76863617 76.26904297 127.75463867 C77.06148407 126.78096848 77.85392517 125.80729828 78.67037964 124.80412292 C81.68801697 121.17184612 84.86624705 117.72742767 88.125 114.3125 C89.340741 113.02428368 90.55559635 111.73523092 91.76953125 110.4453125 C92.33365723 109.8462207 92.8977832 109.24712891 93.47900391 108.62988281 C95.83731907 106.10273802 98.10800192 103.50556956 100.36328125 100.88671875 C102.37873772 98.56341213 104.43848462 96.28251535 106.5 94 C109.13180445 91.08511071 111.74286926 88.15726789 114.3125 85.1875 C121.1354737 77.36298887 128.28930335 69.82539542 135.38037109 62.24462891 C142.58552784 54.5410879 149.72580037 46.79303114 156.625 38.8125 C158.87125177 36.21706292 161.2061564 33.80821045 163.6875 31.4375 C167.58480861 27.58408 170.76892028 23.71518667 171.25 18.0625 C171.1675 17.381875 171.085 16.70125 171 16 C170.01 15.505 170.01 15.505 169 15 C168.938125 14.38125 168.87625 13.7625 168.8125 13.125 C168.12990782 10.68448152 168.12990782 10.68448152 165.1875 9.3125 C160.02255227 7.32431928 154.47353184 7.26064437 149 7 C149 4.69 149 2.38 149 0 C179.69 0 210.38 0 242 0 C242 2.31 242 4.62 242 7 C240.87078125 7.07734375 240.87078125 7.07734375 239.71875 7.15625 C224.92282193 8.73639766 212.10108236 16.32419223 201 26 C200.67 26.66 200.34 27.32 200 28 C199.32582031 28.37769531 198.65164063 28.75539063 197.95703125 29.14453125 C193.70830965 31.81050583 190.30040972 35.22711417 186.6875 38.6875 C185.96626953 39.37005859 185.24503906 40.05261719 184.50195312 40.75585938 C180.11284724 44.92452586 175.83254428 49.17565941 171.63989258 53.54223633 C170 55 170 55 168 55 C167.79375 55.556875 167.5875 56.11375 167.375 56.6875 C165.82702134 59.29091865 163.92265493 60.79396189 161.56640625 62.65625 C159.57451567 64.36500401 158.02701531 66.3692801 156.3984375 68.41796875 C154.8136546 70.21080974 153.09269395 71.66163288 151.25 73.1875 C147.90609574 76.02227598 145.2242406 79.06651745 142.5 82.5 C139.27430854 86.5542081 135.99776959 89.95622818 132.03125 93.26953125 C118.55743347 104.57277129 118.55743347 104.57277129 112 120 C112.66 120.33 113.32 120.66 114 121 C113.87431641 122.10408203 113.87431641 122.10408203 113.74609375 123.23046875 C114.08378464 126.91389706 115.36307122 127.84741229 118.0625 130.3125 C121.67650181 133.65467945 124.92366794 137.15158606 128.13745117 140.87036133 C131.21478099 144.38898081 134.42082216 147.78468919 137.625 151.1875 C138.26695312 151.87263672 138.90890625 152.55777344 139.5703125 153.26367188 C142.31752873 156.18821866 145.06750187 159.08285454 147.9609375 161.86328125 C150 164 150 164 150 166 C150.99 166.33 151.98 166.66 153 167 C154.4375 168.4609375 154.4375 168.4609375 156 170.375 C159.44540946 174.44817474 163.14973329 178.18225469 166.94677734 181.92675781 C170.21839113 185.17250459 173.26895845 188.53538191 176.2578125 192.0390625 C178.97166122 195.09366353 181.90863752 197.91661543 184.81640625 200.78515625 C186.77974671 202.77659461 188.62079669 204.81302578 190.4375 206.9375 C193.15619248 210.1103592 196.02751675 213.06338382 199 216 C201.91053801 218.87557659 204.72424022 221.75874094 207.375 224.875 C221.61361444 241.38644492 236.19460706 252.73598834 258 257 C258 259.31 258 261.62 258 264 C244.06620728 264.02333048 230.13241757 264.04091349 216.19860935 264.05181217 C209.7293232 264.05704168 203.26005011 264.06414056 196.79077148 264.07543945 C190.553297 264.08626592 184.31583513 264.09227632 178.07835197 264.09487724 C175.69279723 264.09673193 173.30724321 264.10035336 170.9216938 264.10573006 C167.59304409 264.11293729 164.26444721 264.11399108 160.93579102 264.11352539 C159.93885727 264.11712067 158.94192352 264.12071594 157.91477966 264.12442017 C157.01309052 264.1230455 156.11140137 264.12167084 155.18238831 264.12025452 C154.3942553 264.12117631 153.6061223 264.1220981 152.79410648 264.12304783 C151 264 151 264 150 263 C149.95919217 261.00041636 149.95745644 258.99954746 150 257 C151.18078125 256.79503906 152.3615625 256.59007812 153.578125 256.37890625 C155.13542997 256.10684695 156.6927209 255.83470732 158.25 255.5625 C159.02730469 255.42779297 159.80460938 255.29308594 160.60546875 255.15429688 C161.35957031 255.02216797 162.11367188 254.89003906 162.890625 254.75390625 C163.92751465 254.57323608 163.92751465 254.57323608 164.98535156 254.38891602 C167.01266117 253.99755584 169.00194515 253.51910249 171 253 C172.23194359 247.40025639 172.02746011 244.85309295 169 240 C166.22318508 236.89564807 163.24910244 234.01320316 160.25 231.125 C155.12185571 226.13977121 150.1403883 221.14180842 145.48339844 215.71044922 C143.7458375 213.70693508 141.90745149 211.8416773 140 210 C137.43439162 207.52286087 135.05515968 204.94120754 132.71875 202.25 C129.08286485 198.06486411 125.31366985 194.02289862 121.5 190 C120.08840808 188.50533448 118.67695305 187.01053968 117.265625 185.515625 C116.55599609 184.76474609 115.84636719 184.01386719 115.11523438 183.24023438 C104.29755777 171.78328602 93.55414045 160.25847353 82.91796875 148.6328125 C82.41749023 148.08592773 81.91701172 147.53904297 81.40136719 146.97558594 C80.02578618 145.47153172 78.65151967 143.96627558 77.27734375 142.4609375 C75.55179101 140.59627502 73.80295222 138.78771418 72 137 C71.93045673 150.43898762 71.87716657 163.87793235 71.84456348 177.31706333 C71.8289148 183.55755029 71.80769075 189.79791403 71.77368164 196.03833008 C71.74106027 202.06187589 71.72314098 208.08530325 71.71536827 214.10893059 C71.7098298 216.40581056 71.69901453 218.70268414 71.68280983 220.99951363 C71.66099908 224.21930013 71.65803466 227.43859864 71.65942383 230.65844727 C71.648638 231.60575714 71.63785217 232.55306702 71.6267395 233.52908325 C71.65553409 239.70620714 72.31721357 244.79678232 76.4296875 249.70703125 C81.90993474 253.89867981 86.51009057 255.23496512 93.3125 256.125 C94.56675781 256.29257812 95.82101562 256.46015625 97.11328125 256.6328125 C98.06589844 256.75398438 99.01851562 256.87515625 100 257 C100.495 260.465 100.495 260.465 101 264 C98.2659091 264.91136363 96.75837189 265.11490989 93.95674133 265.08229065 C93.1364444 265.07525116 92.31614746 265.06821167 91.47099304 265.06095886 C90.57475723 265.04801285 89.67852142 265.03506683 88.75512695 265.02172852 C87.80859253 265.01212097 86.86205811 265.00251343 85.88684082 264.99261475 C82.75391261 264.95959751 79.62112265 264.91927541 76.48828125 264.87890625 C74.31780995 264.8546078 72.14733352 264.83076411 69.97685242 264.80735779 C64.26067257 264.74448949 58.5445835 264.67543054 52.82849121 264.60510254 C46.99703103 264.53444394 41.16550642 264.46961216 35.33398438 264.40429688 C23.88925212 264.27524912 12.44460727 264.13966433 1 264 C0.06576355 260.98968256 -0.04449911 260.13349732 1 257 C2.62808594 256.74476563 2.62808594 256.74476563 4.2890625 256.484375 C5.73450289 256.24033961 7.17980856 255.99550538 8.625 255.75 C9.33785156 255.64042969 10.05070312 255.53085937 10.78515625 255.41796875 C16.55586448 254.41206548 20.85005885 252.44648476 24.8125 247.9375 C27.48888311 243.57076966 27.14272641 239.21168437 27.13371277 234.26940918 C27.13597833 233.36649753 27.13824388 232.46358588 27.14057809 231.53331327 C27.14692883 228.49550329 27.14608804 225.45773779 27.14526367 222.41992188 C27.14825445 220.24703412 27.15165679 218.0741469 27.15544128 215.90126038 C27.16429271 209.99026525 27.16661985 204.07928458 27.16725707 198.16828346 C27.16820512 193.24000822 27.17188214 188.31173637 27.17542917 183.38346243 C27.1835777 171.76133649 27.186013 160.13921831 27.18530273 148.51708984 C27.1847015 136.51159944 27.19526155 124.50616016 27.2110464 112.50068045 C27.22410166 102.20596399 27.2294875 91.91126224 27.22884732 81.61653757 C27.22859179 75.46227346 27.23147368 69.30804923 27.24202538 63.15379333 C27.25167278 57.36889099 27.25180872 51.58406693 27.24450874 45.79916191 C27.24345878 43.67184269 27.24585002 41.54451868 27.2518692 39.41720772 C27.25953397 36.52157528 27.25498116 33.62621693 27.24723816 30.73059082 C27.25238172 29.88147613 27.25752529 29.03236144 27.26282471 28.157516 C27.23962078 24.25241376 27.21627231 22.32440846 25 19 C24.3125 16.9375 24.3125 16.9375 24 15 C24.33 14.34 24.66 13.68 25 13 C23.67741528 12.31225595 22.34013497 11.65288627 21 11 C19.96875 10.46375 18.9375 9.9275 17.875 9.375 C14.00159242 7.69345589 10.49446397 7.83419828 6.33203125 8.08984375 C3.72607594 7.98944681 2.22508573 7.31459088 0 6 C0 4.02 0 2.04 0 0 Z M26 16 C27 18 27 18 27 18 Z " fill="#010101" transform="translate(414,315)"/>
<path d="M0 0 C3.5 -0.3125 3.5 -0.3125 7 0 C9.50475817 2.50475817 10.95701836 4.07589476 11.125 7.6875 C11.08375 8.450625 11.0425 9.21375 11 10 C11.66 10 12.32 10 13 10 C14.78409802 13.06246747 15.22880021 15.22079273 15.125 18.75 C15.10695313 19.54921875 15.08890625 20.3484375 15.0703125 21.171875 C15.04710937 21.77515625 15.02390625 22.3784375 15 23 C15.99 23 16.98 23 18 23 C18.103125 24.11375 18.20625 25.2275 18.3125 26.375 C18.539375 27.57125 18.76625 28.7675 19 30 C19.99 30.66 20.98 31.32 22 32 C22.1875 35.125 22.1875 35.125 22 38 C22.66 38 23.32 38 24 38 C24.99 40.97 24.99 40.97 26 44 C25.34 44 24.68 44 24 44 C25.11684242 46.81599574 26.24296206 49.6276201 27.375 52.4375 C27.69210937 53.23994141 28.00921875 54.04238281 28.3359375 54.86914062 C28.6453125 55.63291016 28.9546875 56.39667969 29.2734375 57.18359375 C29.55622559 57.89056396 29.83901367 58.59753418 30.13037109 59.32592773 C30.89057933 61.19010877 30.89057933 61.19010877 33 62 C33.33736974 64.33275314 33.66999084 66.6661942 34 69 C34.81969248 71.17605659 35.72030514 73.32287186 36.6875 75.4375 C39.34983632 81.40062259 41.69614745 87.40560958 43.8190918 93.58178711 C44.90924015 96.62423234 45.90960955 98.89706487 48.0546875 101.33984375 C50.46328708 104.63353113 50.77457754 107.31983006 51.4453125 111.28466797 C52.39297215 115.92369554 54.20519826 120.19579939 56 124.5625 C56.53367187 125.91311523 56.53367187 125.91311523 57.078125 127.29101562 C58.59814875 131.94667157 58.59814875 131.94667157 62 135 C62.22576242 136.64636179 62.44646662 138.29357551 62.64160156 139.94384766 C63.30135326 143.7288809 64.89326315 147.16056924 66.375 150.6875 C67.10399021 152.46568478 67.83178592 154.24435959 68.55859375 156.0234375 C68.95159668 156.98088867 69.34459961 157.93833984 69.74951172 158.92480469 C72.03029269 164.53369127 74.22977031 170.17455323 76.4375 175.8125 C76.89922607 176.9893335 77.36095215 178.16616699 77.83666992 179.37866211 C82.23216154 190.58275105 86.61831538 201.79050484 91 213 C91.66 213 92.32 213 93 213 C93.16411377 214.49672241 93.16411377 214.49672241 93.33154297 216.02368164 C93.91691396 220.0890838 95.20968871 223.80589112 96.6953125 227.62109375 C97.10111038 228.67648094 97.10111038 228.67648094 97.5151062 229.75318909 C98.08773768 231.23294339 98.66447629 232.71111427 99.24511719 234.18774414 C100.11873476 236.42148054 100.96594534 238.664095 101.8125 240.90820312 C105.40533589 250.2219153 108.90175848 258.61381827 118.25 263.375 C123.33165583 265.35851333 128.61806705 266.23546373 134 267 C134 268.32 134 269.64 134 271 C134.66 271.33 135.32 271.66 136 272 C135.67 272.99 135.34 273.98 135 275 C121.84845234 274.89267873 108.6969616 274.78008263 95.54551792 274.66066074 C89.4394624 274.60538234 83.33340213 274.55195462 77.22729492 274.50268555 C71.33990594 274.45511436 65.45257728 274.40277446 59.56525993 274.34705925 C57.31369456 274.32660275 55.06211262 274.30789526 52.81051826 274.29092598 C49.66862087 274.26695465 46.52683867 274.23689053 43.38500977 274.20532227 C42.44418045 274.1995668 41.50335114 274.19381134 40.53401184 274.18788147 C34.11405216 274.11405216 34.11405216 274.11405216 33 273 C32.95919217 271.00041636 32.95745644 268.99954746 33 267 C34.84464844 266.74476563 34.84464844 266.74476563 36.7265625 266.484375 C38.35949332 266.24037384 39.99229955 265.9955379 41.625 265.75 C42.83736328 265.58564453 42.83736328 265.58564453 44.07421875 265.41796875 C49.37657599 264.59890544 52.81609689 263.40064512 57 260 C59.51222231 255.9585989 59.02467526 252.46336335 58 248 C56.85696977 244.52051803 55.50785635 241.14022846 54.125 237.75 C53.77308594 236.8528125 53.42117188 235.955625 53.05859375 235.03125 C52.71183594 234.17015625 52.36507812 233.3090625 52.0078125 232.421875 C51.69473145 231.64424805 51.38165039 230.86662109 51.05908203 230.06542969 C50.13729432 227.94645245 50.13729432 227.94645245 48.43701172 226.66113281 C47 225 47 225 46 218 C43.69 212.06 41.38 206.12 39 200 C6.33 199.67 -26.34 199.34 -60 199 C-60.33 200.65 -60.66 202.3 -61 204 C-62.53777101 209.91601077 -64.53728556 215.44632797 -67.09765625 220.9921875 C-68.27171077 223.60458588 -69.12727439 226.27273247 -70 229 C-70.32097656 229.82371094 -70.64195312 230.64742187 -70.97265625 231.49609375 C-74.05941012 239.47297382 -76.74295137 246.91252905 -73.14453125 255.14453125 C-70.50767739 259.41929434 -66.81749434 262.1546538 -62.3125 264.25 C-57.24590872 265.39715274 -52.13443126 266.21903473 -47 267 C-46.61866701 268.9914056 -46.28674418 270.99279077 -46 273 C-47.71723406 274.71723406 -49.90032167 274.12593494 -52.19021606 274.13552856 C-52.93310883 274.13350433 -53.67600159 274.1314801 -54.44140625 274.12939453 C-55.22023163 274.13114685 -55.99905701 274.13289917 -56.80148315 274.13470459 C-59.38851111 274.13912349 -61.97547129 274.13618499 -64.5625 274.1328125 C-66.35229506 274.13348553 -68.14209002 274.13445554 -69.93188477 274.13571167 C-73.68799711 274.13718869 -77.44408572 274.13503394 -81.20019531 274.13037109 C-86.02600493 274.1246738 -90.85175895 274.12795278 -95.67756653 274.13394356 C-99.37488223 274.13754905 -103.07218464 274.13641064 -106.76950073 274.13381577 C-108.54938768 274.13314646 -110.32927582 274.13397503 -112.10916138 274.13629532 C-114.59233822 274.13882165 -117.07542374 274.13498154 -119.55859375 274.12939453 C-120.67293289 274.13243088 -120.67293289 274.13243088 -121.80978394 274.13552856 C-126.88573738 274.11426262 -126.88573738 274.11426262 -128 273 C-128.04080783 271.00041636 -128.04254356 268.99954746 -128 267 C-126.62328125 266.74476563 -126.62328125 266.74476563 -125.21875 266.484375 C-113.27438016 264.28276584 -113.27438016 264.28276584 -103.5625 257.4375 C-101.86816715 255.01407924 -101.86816715 255.01407924 -101 252 C-100.34 252.33 -99.68 252.66 -99 253 C-98.76434326 252.13689209 -98.76434326 252.13689209 -98.52392578 251.25634766 C-96.15102704 242.93555837 -92.8512382 235.06646631 -89.49609375 227.1015625 C-87.11740682 221.31365958 -85.37906134 216.26209338 -85 210 C-84.01 210 -83.02 210 -82 210 C-81.87866699 209.29109619 -81.75733398 208.58219238 -81.63232422 207.85180664 C-80.9700398 204.86487832 -80.01405469 202.21290837 -78.8828125 199.37109375 C-78.44630371 198.26789795 -78.00979492 197.16470215 -77.56005859 196.02807617 C-77.08648926 194.84318604 -76.61291992 193.6582959 -76.125 192.4375 C-75.62927333 191.18808405 -75.13400117 189.93848769 -74.63916016 188.6887207 C-73.6095139 186.08930114 -72.57791177 183.49067068 -71.54492188 180.89257812 C-69.1368669 174.8313386 -66.75704191 168.75899808 -64.375 162.6875 C-63.46884212 160.37887009 -62.56259306 158.07027597 -61.65625 155.76171875 C-61.21667969 154.64200684 -60.77710938 153.52229492 -60.32421875 152.36865234 C-59.0004235 149.00107734 -57.67246009 145.63516968 -56.34375 142.26953125 C-55.52079713 140.17970176 -54.69787873 138.08985869 -53.875 136 C-53.49649902 135.04440186 -53.11799805 134.08880371 -52.72802734 133.10424805 C-52.3820752 132.22422119 -52.03612305 131.34419434 -51.6796875 130.4375 C-51.37788574 129.67308594 -51.07608398 128.90867187 -50.76513672 128.12109375 C-49.96629291 126.02693333 -49.96629291 126.02693333 -49.49267578 123.90234375 C-49 122 -49 122 -47.4375 119.125 C-45.88609494 115.7523803 -45.9170637 113.64919729 -46 110 C-44.66666667 108.66666667 -43.33333333 107.33333333 -42 106 C-40.35184634 101.6154381 -39.18011189 97.12069622 -38.4375 92.5 C-38 90 -38 90 -36 88 C-33.0562441 83.58436615 -31.37707167 78.73649947 -29.4375 73.8125 C-29.02564453 72.79607422 -28.61378906 71.77964844 -28.18945312 70.73242188 C-25.69229841 64.48893923 -25.69229841 64.48893923 -24.4765625 57.91796875 C-23.84173179 52.69882777 -21.96578806 48.32024935 -19.9375 43.5 C-19.56044922 42.5821875 -19.18339844 41.664375 -18.79492188 40.71875 C-17.87189036 38.4754329 -16.94015476 36.23618189 -16 34 C-15.34 34 -14.68 34 -14 34 C-13.92910156 33.10152344 -13.85820312 32.20304687 -13.78515625 31.27734375 C-12.95053342 25.43498393 -10.55809471 20.0344787 -8.4375 14.5625 C-7.80038086 12.8928418 -7.80038086 12.8928418 -7.15039062 11.18945312 C-6.10669884 8.45709149 -5.05641767 5.72746098 -4 3 C-3.34 3 -2.68 3 -2 3 C-1.34 2.01 -0.68 1.02 0 0 Z M-4 6 C-3 9 -3 9 -3 9 Z M9 6 C10 8 10 8 10 8 Z M-5 9 C-4 11 -4 11 -4 11 Z M-6 12 C-5 14 -5 14 -5 14 Z M-7 14 C-6 16 -6 16 -6 16 Z M-8 16 C-7 19 -7 19 -7 19 Z M13 16 C14 18 14 18 14 18 Z M-10 22 C-9 24 -9 24 -9 24 Z M-11 25 C-10 27 -10 27 -10 27 Z M17 26 C18 28 18 28 18 28 Z M-13 30 C-12 32 -12 32 -12 32 Z M20 34 C21 36 21 36 21 36 Z M-16 38 C-15 40 -15 40 -15 40 Z M-17 40 C-16 42 -16 42 -16 42 Z M-18 42 C-17 45 -17 45 -17 45 Z M-19 45 C-18 47 -18 47 -18 47 Z M-20 48 C-19 50 -19 50 -19 50 Z M-21 50 C-20 52 -20 52 -20 52 Z M-22 53 C-21 55 -21 55 -21 55 Z M-24 58 C-23 60 -23 60 -23 60 Z M-13 78 C-14.50062127 81.8955943 -16.0004339 85.79149941 -17.5 89.6875 C-17.95632812 90.8727124 -18.41265625 92.0579248 -18.8828125 93.27905273 C-21.29032586 99.53699032 -23.6853136 105.79925468 -26.05712891 112.07080078 C-29.72846474 121.7729379 -33.54842846 131.40941877 -37.42089844 141.03295898 C-40.25729057 148.09698369 -42.98329593 155.19042239 -45.6171875 162.33203125 C-46.61234534 164.97172959 -47.63188699 167.58741213 -48.6953125 170.19921875 C-49.11635254 171.23344971 -49.11635254 171.23344971 -49.54589844 172.28857422 C-50.32504208 174.19054737 -51.11149194 176.08952287 -51.8984375 177.98828125 C-53.17175146 180.93510073 -53.17175146 180.93510073 -53 184 C-24.62 184 3.76 184 33 184 C31.1999581 178.59987429 29.41236547 173.29965005 27.375 168 C26.94960938 166.88625 26.52421875 165.7725 26.0859375 164.625 C25.24468401 162.11698536 25.24468401 162.11698536 24 161 C23.4490284 159.48982396 22.93290846 157.96680437 22.4375 156.4375 C22.16808594 155.61121094 21.89867187 154.78492188 21.62109375 153.93359375 C21.41613281 153.29550781 21.21117187 152.65742188 21 152 C20.34 152 19.68 152 19 152 C18.87625 150.7625 18.7525 149.525 18.625 148.25 C18.22831928 145.0653801 17.59141317 142.80837619 16 140 C15.31039038 138.00779443 14.63920943 136.00894394 14 134 C13.34 134 12.68 134 12 134 C11.31904891 132.63201789 10.65591761 131.25515997 10 129.875 C9.62875 129.10929687 9.2575 128.34359375 8.875 127.5546875 C8 125 8 125 8.01953125 122.10546875 C7.99630104 118.41186523 7.05641117 115.85775888 5.6875 112.4375 C5.25824219 111.34308594 4.82898438 110.24867188 4.38671875 109.12109375 C3.10937896 106.24617969 1.62107582 103.68839571 0 101 C-0.7734375 98.96484375 -0.7734375 98.96484375 -1.375 96.9375 C-4.32828484 86.69025676 -4.32828484 86.69025676 -10 78 C-10.99 78 -11.98 78 -13 78 Z M-37 91 C-36 93 -36 93 -36 93 Z M-38 93 C-37 95 -37 95 -37 95 Z M48 105 C49 107 49 107 49 107 Z M49 107 C50 109 50 109 50 109 Z M9 124 C10 126 10 126 10 126 Z M10 126 C11 129 11 129 11 129 Z M19 149 C20 151 20 151 20 151 Z M-85 213 C-84 215 -84 215 -84 215 Z M48 222 C49 224 49 224 49 224 Z " fill="#010101" transform="translate(253,305)"/>
<path d="M0 0 C1.29712852 3.89138557 0.39738594 5.17711556 -1.125 8.9375 C-1.74761719 10.49791016 -1.74761719 10.49791016 -2.3828125 12.08984375 C-3.27848946 14.27091745 -4.18767314 16.44578605 -5.10253906 18.61889648 C-8.11495184 25.78917829 -10.97512152 33.00778535 -13.7628479 40.26821899 C-15.06039338 43.64656438 -16.36391914 47.02259831 -17.66796875 50.3984375 C-17.93880783 51.09961197 -18.20964691 51.80078644 -18.48869324 52.52320862 C-21.56118395 60.46692667 -24.68507596 68.3902841 -27.8125 76.3125 C-28.89983154 79.06767205 -29.9870725 81.82287983 -31.07421875 84.578125 C-31.32997681 85.22627167 -31.58573486 85.87441833 -31.84924316 86.54220581 C-33.95364463 91.87746132 -36.04607477 97.21726895 -38.125 102.5625 C-38.38385986 103.22741455 -38.64271973 103.8923291 -38.90942383 104.57739258 C-40.08106448 107.59645311 -41.23186566 110.62185174 -42.36328125 113.65625 C-44.52886489 119.4430771 -46.79234171 125.19105857 -49.0625 130.9375 C-49.50916016 132.08541016 -49.95582031 133.23332031 -50.41601562 134.41601562 C-50.84720703 135.50462891 -51.27839844 136.59324219 -51.72265625 137.71484375 C-52.30672241 139.20165649 -52.30672241 139.20165649 -52.90258789 140.71850586 C-54 143 -54 143 -56 144 C-55.42085524 139.48267087 -54.18259426 135.4678693 -52.69921875 131.19140625 C-51.83809786 128.49258602 -51.35984268 125.80677288 -51 123 C-50.01 123 -49.02 123 -48 123 C-47.87866699 122.29109619 -47.75733398 121.58219238 -47.63232422 120.85180664 C-46.9700398 117.86487832 -46.01405469 115.21290837 -44.8828125 112.37109375 C-44.22804932 110.71630005 -44.22804932 110.71630005 -43.56005859 109.02807617 C-43.08648926 107.84318604 -42.61291992 106.6582959 -42.125 105.4375 C-41.62927333 104.18808405 -41.13400117 102.93848769 -40.63916016 101.6887207 C-39.6095139 99.08930114 -38.57791177 96.49067068 -37.54492188 93.89257812 C-35.1368669 87.8313386 -32.75704191 81.75899808 -30.375 75.6875 C-29.46884212 73.37887009 -28.56259306 71.07027597 -27.65625 68.76171875 C-27.21667969 67.64200684 -26.77710938 66.52229492 -26.32421875 65.36865234 C-25.0004235 62.00107734 -23.67246009 58.63516968 -22.34375 55.26953125 C-21.52079713 53.17970176 -20.69787873 51.08985869 -19.875 49 C-19.49649902 48.04440186 -19.11799805 47.08880371 -18.72802734 46.10424805 C-18.3820752 45.22422119 -18.03612305 44.34419434 -17.6796875 43.4375 C-17.37788574 42.67308594 -17.07608398 41.90867187 -16.76513672 41.12109375 C-15.96629291 39.02693333 -15.96629291 39.02693333 -15.49267578 36.90234375 C-15 35 -15 35 -13.4375 32.125 C-11.88609494 28.7523803 -11.9170637 26.64919729 -12 23 C-10.66666667 21.66666667 -9.33333333 20.33333333 -8 19 C-6.35184634 14.6154381 -5.18011189 10.12069622 -4.4375 5.5 C-4 3 -4 3 -2 1 C-1.34 0.67 -0.68 0.34 0 0 Z M-3 4 C-2 6 -2 6 -2 6 Z M-4 6 C-3 8 -3 8 -3 8 Z M-51 126 C-50 128 -50 128 -50 128 Z " fill="#101111" transform="translate(219,392)"/>
<path d="M0 0 C30.69 0 61.38 0 93 0 C93 2.31 93 4.62 93 7 C89.7 7.33 86.4 7.66 83 8 C83 7.34 83 6.68 83 6 C84.134375 5.71125 85.26875 5.4225 86.4375 5.125 C87.613125 4.75375 88.78875 4.3825 90 4 C90.33 3.34 90.66 2.68 91 2 C61.63 2 32.26 2 2 2 C2 2.99 2 3.98 2 5 C2.85271484 4.94779297 2.85271484 4.94779297 3.72265625 4.89453125 C9.33720226 4.69769408 12.99655005 5.44504683 18 8 C14.75432383 9.62283808 11.36160376 8.54725234 7.875 8.0625 C7.12089844 7.96259766 6.36679687 7.86269531 5.58984375 7.75976562 C3.72582247 7.51201596 1.86280712 7.25671943 0 7 C0 4.69 0 2.38 0 0 Z " fill="#252525" transform="translate(563,315)"/>
<path d="M0 0 C33 0 66 0 100 0 C101.33332095 2.6666419 100.67102033 4.16680303 100 7 C96.43954823 8.18681726 93.56191663 8.09689832 89.8125 8.0625 C88.54019531 8.05347656 87.26789063 8.04445313 85.95703125 8.03515625 C84.49330078 8.01775391 84.49330078 8.01775391 83 8 C83 7.34 83 6.68 83 6 C88.05002222 4.96409801 92.87416389 4.89748328 98 5 C98 4.01 98 3.02 98 2 C85.66535432 1.9768565 73.33071378 1.95907463 60.99605083 1.94818783 C55.26892519 1.94296341 49.54181437 1.93587372 43.81469727 1.92456055 C38.29043748 1.91371606 32.76619198 1.90771983 27.24192238 1.90512276 C25.13154691 1.90327134 23.02117225 1.89965612 20.91080284 1.89426994 C17.96094431 1.88703884 15.01114523 1.88600994 12.0612793 1.88647461 C11.18374496 1.88287933 10.30621063 1.87928406 9.40208435 1.87557983 C6.01795366 1.88136978 3.23311268 1.92229577 0 3 C0 2.01 0 1.02 0 0 Z " fill="#212122" transform="translate(414,315)"/>
<path d="M0 0 C0 3.54404336 -0.60989485 4.10267905 -2.875 6.6875 C-3.40867187 7.31011719 -3.94234375 7.93273437 -4.4921875 8.57421875 C-6 10 -6 10 -8 10 C-8.26425781 10.59296875 -8.52851562 11.1859375 -8.80078125 11.796875 C-10.04370425 14.08029054 -11.30401646 15.47426723 -13.1875 17.25 C-15.69341651 19.6209374 -17.98797603 22.10674564 -20.24609375 24.7109375 C-24.0080985 29.04406344 -27.9239283 33.21465039 -31.875 37.375 C-36.92632294 42.71737893 -41.93607466 48.0848832 -46.828125 53.57421875 C-49.54904951 56.61323696 -52.30401012 59.62009851 -55.0625 62.625 C-55.55274658 63.15907471 -56.04299316 63.69314941 -56.5480957 64.2434082 C-57.69836461 65.49594156 -58.84912671 66.74802195 -60 68 C-60 64.45758001 -59.54599081 64.15581893 -57.18359375 61.70703125 C-56.58353516 61.07603516 -55.98347656 60.44503906 -55.36523438 59.79492188 C-54.72908203 59.14072266 -54.09292969 58.48652344 -53.4375 57.8125 C-52.20572965 56.52859123 -50.97526239 55.24343102 -49.74609375 53.95703125 C-49.12347656 53.30637695 -48.50085938 52.65572266 -47.859375 51.98535156 C-46.03574351 50.03816521 -44.2746601 48.05090952 -42.52734375 46.03515625 C-38.84326069 41.78524603 -34.99757841 37.70279755 -31.125 33.625 C-24.05652453 26.14755752 -17.10745656 18.59551572 -10.375 10.8125 C-7.08684837 7.03151065 -3.59080872 3.49257991 0 0 Z " fill="#101110" transform="translate(581,343)"/>
<path d="M0 0 C1 2 1 2 -0.07421875 5.44921875 C-0.60396986 6.86500193 -1.14212515 8.27766152 -1.6875 9.6875 C-1.94466797 10.38294922 -2.20183594 11.07839844 -2.46679688 11.79492188 C-5.97242618 21.01980881 -10.38227353 28.66524582 -19.49609375 33.2578125 C-24.22418285 35.20086282 -29.05690002 36.71049566 -34 38 C-34 38.66 -34 39.32 -34 40 C-25.75 40.33 -17.5 40.66 -9 41 C-9 41.33 -9 41.66 -9 42 C-13.47915328 42.02886338 -17.95828291 42.04675187 -22.4375 42.0625 C-23.71689453 42.07087891 -24.99628906 42.07925781 -26.31445312 42.08789062 C-27.52939453 42.09111328 -28.74433594 42.09433594 -29.99609375 42.09765625 C-31.12200928 42.10289307 -32.2479248 42.10812988 -33.40795898 42.11352539 C-36 42 -36 42 -37 41 C-37.04080783 39.00041636 -37.04254356 36.99954746 -37 35 C-36.0821875 34.82984375 -35.164375 34.6596875 -34.21875 34.484375 C-22.27438016 32.28276584 -22.27438016 32.28276584 -12.5625 25.4375 C-10.86816715 23.01407924 -10.86816715 23.01407924 -10 20 C-9.34 20.33 -8.68 20.66 -8 21 C-7.76216797 20.10861328 -7.76216797 20.10861328 -7.51953125 19.19921875 C-5.62671778 12.47502505 -3.02522772 6.28960388 0 0 Z " fill="#0F0F0F" transform="translate(162,537)"/>
<path d="M0 0 C1.25957154 3.77871461 0.53221971 4.87120371 -0.9140625 8.5234375 C-1.56181641 10.18052734 -1.56181641 10.18052734 -2.22265625 11.87109375 C-2.68542969 13.02738281 -3.14820313 14.18367188 -3.625 15.375 C-4.06457031 16.49261719 -4.50414062 17.61023438 -4.95703125 18.76171875 C-5.8508092 21.03416885 -6.74790701 23.30531581 -7.64819336 25.57519531 C-9.40849759 30.03492941 -11.12701365 34.51016914 -12.84375 38.98681641 C-14.4461392 43.16263725 -16.06531621 47.33183755 -17.6875 51.5 C-17.98205078 52.25796875 -18.27660156 53.0159375 -18.58007812 53.796875 C-20.03554731 57.53857555 -21.49999672 61.27585393 -23 65 C-23.33 65 -23.66 65 -24 65 C-23.42451374 58.93273061 -21.60413145 53.77493695 -19.375 48.125 C-19.01817139 47.20388428 -18.66134277 46.28276855 -18.29370117 45.33374023 C-15.76708099 38.84734941 -13.13188019 32.40845623 -10.44384766 25.98754883 C-8.12423056 20.41069677 -6.0859469 14.77030162 -4.140625 9.05078125 C-2.96429136 5.90449161 -1.5527801 2.97616185 0 0 Z " fill="#191919" transform="translate(233,398)"/>
<path d="M0 0 C11.71726788 -0.02312215 23.43453037 -0.04091443 35.15181637 -0.05181217 C40.59202312 -0.05704128 46.03221431 -0.06413943 51.47241211 -0.07543945 C56.71785702 -0.08626735 61.96328692 -0.09227662 67.20874214 -0.09487724 C69.21470946 -0.09673167 71.22067592 -0.10035262 73.22663689 -0.10573006 C76.02602824 -0.11293919 78.82535679 -0.113991 81.62475586 -0.11352539 C82.46272705 -0.11712067 83.30069824 -0.12071594 84.1640625 -0.12442017 C89.88594784 -0.11405216 89.88594784 -0.11405216 91 1 C91 2.65 91 4.3 91 6 C87.7 6.33 84.4 6.66 81 7 C81 6.34 81 5.68 81 5 C82.134375 4.71125 83.26875 4.4225 84.4375 4.125 C85.613125 3.75375 86.78875 3.3825 88 3 C88.33 2.34 88.66 1.68 89 1 C59.63 1 30.26 1 0 1 C0 0.67 0 0.34 0 0 Z " fill="#121212" transform="translate(565,316)"/>
<path d="M0 0 C3.96 0 7.92 0 12 0 C13.33332095 2.6666419 12.67102033 4.16680303 12 7 C8.43954823 8.18681726 5.56191663 8.09689832 1.8125 8.0625 C0.54019531 8.05347656 -0.73210937 8.04445313 -2.04296875 8.03515625 C-3.50669922 8.01775391 -3.50669922 8.01775391 -5 8 C-5 7.34 -5 6.68 -5 6 C0.05002222 4.96409801 4.87416389 4.89748328 10 5 C10 3.68 10 2.36 10 1 C6.7 1 3.4 1 0 1 C0 0.67 0 0.34 0 0 Z " fill="#3F3F40" transform="translate(502,315)"/>
<path d="M0 0 C5.28 0.66 10.56 1.32 16 2 C16.33 3.98 16.66 5.96 17 8 C16 9 16 9 13.49609375 9.09765625 C11.98208984 9.08025391 11.98208984 9.08025391 10.4375 9.0625 C9.42558594 9.05347656 8.41367188 9.04445313 7.37109375 9.03515625 C6.19740234 9.01775391 6.19740234 9.01775391 5 9 C8.18762365 6.87491756 10.26512223 6.4979837 14 6 C13.67 5.34 13.34 4.68 13 4 C10.48541599 3.38356018 10.48541599 3.38356018 7.5625 3 C2.21984733 2.21984733 2.21984733 2.21984733 0 0 Z " fill="#131313" transform="translate(190,570)"/>
<path d="M0 0 C3.32226755 2.94537165 4.8268491 5.43461124 6.25 9.625 C6.58515625 10.58664062 6.9203125 11.54828125 7.265625 12.5390625 C8 15 8 15 8 17 C7.34 17 6.68 17 6 17 C5.35165346 15.730447 4.70642185 14.45930294 4.0625 13.1875 C3.70285156 12.47980469 3.34320313 11.77210938 2.97265625 11.04296875 C2 9 2 9 1 6 C0.01 6 -0.98 6 -2 6 C-1.125 1.125 -1.125 1.125 0 0 Z " fill="#0D0D0D" transform="translate(242,377)"/>
<path d="M0 0 C3.5625 0.1875 3.5625 0.1875 5.5625 2.1875 C6.5525 3.6725 6.5525 3.6725 7.5625 5.1875 C7.2325 6.1775 6.9025 7.1675 6.5625 8.1875 C5.9025 8.1875 5.2425 8.1875 4.5625 8.1875 C3.0775 5.2175 3.0775 5.2175 1.5625 2.1875 C-0.39644361 2.30056697 -0.39644361 2.30056697 -2.4375 3.1875 C-3.73410434 5.67784386 -3.73410434 5.67784386 -4.4375 8.1875 C-5.0975 8.1875 -5.7575 8.1875 -6.4375 8.1875 C-4.26803691 0.23280201 -4.26803691 0.23280201 0 0 Z " fill="#0D0D0D" transform="translate(256.4375,304.8125)"/>
<path d="M0 0 C2 2 2 2 2 5 C2.85271484 4.94779297 2.85271484 4.94779297 3.72265625 4.89453125 C9.33720226 4.69769408 12.99655005 5.44504683 18 8 C14.75432383 9.62283808 11.36160376 8.54725234 7.875 8.0625 C7.12089844 7.96259766 6.36679687 7.86269531 5.58984375 7.75976562 C3.72582247 7.51201596 1.86280712 7.25671943 0 7 C0 4.69 0 2.38 0 0 Z " fill="#151615" transform="translate(563,315)"/>
<path d="M0 0 C4.29 0.33 8.58 0.66 13 1 C13.33 3.31 13.66 5.62 14 8 C13.01 8.33 12.02 8.66 11 9 C11 7.02 11 5.04 11 3 C10.28972656 2.95101562 9.57945312 2.90203125 8.84765625 2.8515625 C7.92855469 2.77679687 7.00945312 2.70203125 6.0625 2.625 C5.14597656 2.55539062 4.22945313 2.48578125 3.28515625 2.4140625 C2.15400391 2.20910156 2.15400391 2.20910156 1 2 C0.67 1.34 0.34 0.68 0 0 Z " fill="#2D2D2E" transform="translate(501,571)"/>
<path d="M0 0 C0.99 0 1.98 0 3 0 C3 2.31 3 4.62 3 7 C-2.61 7 -8.22 7 -14 7 C-10.01219998 5.00609999 -8.52852428 4.77313037 -4.25 4.875 C-3.26515625 4.89304687 -2.2803125 4.91109375 -1.265625 4.9296875 C-0.14414062 4.96449219 -0.14414062 4.96449219 1 5 C0.67 3.35 0.34 1.7 0 0 Z " fill="#171817" transform="translate(669,572)"/>
<path d="M0 0 C0.33 0 0.66 0 1 0 C0.55355616 7.58954531 -2.11500562 14.01639737 -5 21 C-5.33 21 -5.66 21 -6 21 C-5.42381249 15.85404946 -4.25256722 11.44921945 -2.4375 6.5625 C-1.98246094 5.32628906 -1.52742187 4.09007812 -1.05859375 2.81640625 C-0.70925781 1.88699219 -0.35992187 0.95757812 0 0 Z " fill="#171717" transform="translate(215,442)"/>
<path d="M0 0 C1.25425781 0.19464844 2.50851562 0.38929688 3.80078125 0.58984375 C4.75339844 0.74582031 5.70601562 0.90179687 6.6875 1.0625 C6.6875 1.3925 6.6875 1.7225 6.6875 2.0625 C0.4175 2.0625 -5.8525 2.0625 -12.3125 2.0625 C-12.3125 1.4025 -12.3125 0.7425 -12.3125 0.0625 C-7.955598 -1.12877531 -4.43292737 -0.70429687 0 0 Z " fill="#121212" transform="translate(579.3125,576.9375)"/>
<path d="M0 0 C4.82360189 -0.19294408 8.49646738 0.24252386 13 2 C9.84493858 2.93619813 7.03413498 3.1057123 3.75 3.0625 C2.85796875 3.05347656 1.9659375 3.04445313 1.046875 3.03515625 C0.37140625 3.02355469 -0.3040625 3.01195312 -1 3 C-0.67 2.01 -0.34 1.02 0 0 Z " fill="#323232" transform="translate(419,320)"/>
<path d="M0 0 C0.66 0.66 1.32 1.32 2 2 C1.2116391 3.77230751 0.41918653 5.54279534 -0.375 7.3125 C-0.81585938 8.29863281 -1.25671875 9.28476562 -1.7109375 10.30078125 C-3 13 -3 13 -5 16 C-4.49228528 10.03435204 -2.61407872 5.36190101 0 0 Z " fill="#252525" transform="translate(221,429)"/>
<path d="M0 0 C2.45234885 0.98093954 3.7809268 1.68703828 5.3125 3.875 C6.1132654 6.35009306 5.86325845 7.58287634 5 10 C4.34 10 3.68 10 3 10 C0.96564469 6.27034861 0 4.33094958 0 0 Z " fill="#0B0B0B" transform="translate(262,313)"/>
<path d="M0 0 C0 3.52232517 -0.56731481 4.05751328 -2.8125 6.625 C-3.59560547 7.54152344 -3.59560547 7.54152344 -4.39453125 8.4765625 C-6 10 -6 10 -9 11 C-9 8 -9 8 -7.125 5.8125 C-5 4 -5 4 -3 4 C-2.67 3.01 -2.34 2.02 -2 1 C-1.34 0.67 -0.68 0.34 0 0 Z " fill="#181818" transform="translate(558,393)"/>
<path d="M0 0 C3.96 0 7.92 0 12 0 C13.24546405 2.49092811 12.7767578 3.41080733 12 6 C11.34 6 10.68 6 10 6 C10 4.35 10 2.7 10 1 C6.7 1 3.4 1 0 1 C0 0.67 0 0.34 0 0 Z " fill="#383938" transform="translate(502,315)"/>
<path d="M0 0 C0.12375 0.639375 0.2475 1.27875 0.375 1.9375 C0.684375 2.9584375 0.684375 2.9584375 1 4 C1.66 4.33 2.32 4.66 3 5 C2.67 5.99 2.34 6.98 2 8 C-0.64 7.67 -3.28 7.34 -6 7 C-6 6.67 -6 6.34 -6 6 C-4.35 5.67 -2.7 5.34 -1 5 C-0.67 3.35 -0.34 1.7 0 0 Z " fill="#616062" transform="translate(386,572)"/>
<path d="M0 0 C0 3.77910478 -0.99703962 4.46106101 -3.5 7.1875 C-4.1496875 7.90292969 -4.799375 8.61835938 -5.46875 9.35546875 C-5.9740625 9.89816406 -6.479375 10.44085938 -7 11 C-7.66 10.67 -8.32 10.34 -9 10 C-6.03 6.7 -3.06 3.4 0 0 Z " fill="#191919" transform="translate(543,384)"/>
<path d="M0 0 C7.48291572 6.15034169 7.48291572 6.15034169 10 10 C5.86360664 8.40907948 2.76786752 5.39525082 0 2 C0 1.34 0 0.68 0 0 Z " fill="#070707" transform="translate(569,483)"/>
<path d="M0 0 C1.5625 1.25 1.5625 1.25 3 3 C2.6875 5.1875 2.6875 5.1875 2 7 C0.68 6.67 -0.64 6.34 -2 6 C-1.125 1.125 -1.125 1.125 0 0 Z " fill="#161515" transform="translate(242,377)"/>
<path d="M0 0 C3.36591866 1.44253657 5.51047079 3.33264727 8 6 C7.67 6.66 7.34 7.32 7 8 C5.83035398 6.8572081 4.66435444 5.71068285 3.5 4.5625 C2.8503125 3.92441406 2.200625 3.28632812 1.53125 2.62890625 C0 1 0 1 0 0 Z " fill="#070707" transform="translate(576,550)"/>
<path d="M0 0 C0.66 0.33 1.32 0.66 2 1 C1.01 1.99 0.02 2.98 -1 4 C-1.66 3.67 -2.32 3.34 -3 3 C-2.01 2.01 -1.02 1.02 0 0 Z " fill="#090909" transform="translate(436,563)"/>
<path d="M0 0 C1.32 0.99 2.64 1.98 4 3 C3.67 3.66 3.34 4.32 3 5 C1.5 3.625 1.5 3.625 0 2 C0 1.34 0 0.68 0 0 Z " fill="#080808" transform="translate(525,495)"/>
<path d="M0 0 C1.485 0.99 1.485 0.99 3 2 C2.67 2.66 2.34 3.32 2 4 C1.34 2.68 0.68 1.36 0 0 Z " fill="#070707" transform="translate(529,440)"/>
<path d="M0 0 C0.66 0.66 1.32 1.32 2 2 C1.67 2.99 1.34 3.98 1 5 C0.67 3.35 0.34 1.7 0 0 Z " fill="#070707" transform="translate(312,434)"/>
<path d="M0 0 C0.99 0.33 1.98 0.66 3 1 C2.67 1.66 2.34 2.32 2 3 C1.34 2.01 0.68 1.02 0 0 Z " fill="#070707" transform="translate(623,541)"/>
<path d="M0 0 C0.33 0.66 0.66 1.32 1 2 C0.34 2.66 -0.32 3.32 -1 4 C-0.67 2.68 -0.34 1.36 0 0 Z " fill="#070707" transform="translate(212,404)"/>
<path d="M0 0 C0.66 0.33 1.32 0.66 2 1 C1.01 1.66 0.02 2.32 -1 3 C-0.67 2.01 -0.34 1.02 0 0 Z " fill="#090909" transform="translate(579,342)"/>
<path d="M0 0 C0.99 0.495 0.99 0.495 2 1 C1.67 1.66 1.34 2.32 1 3 C0.67 2.01 0.34 1.02 0 0 Z " fill="#080808" transform="translate(557,529)"/>
<path d="M0 0 C0.33 0.99 0.66 1.98 1 3 C0.34 2.67 -0.32 2.34 -1 2 C-0.67 1.34 -0.34 0.68 0 0 Z " fill="#060606" transform="translate(165,523)"/>
<path d="M0 0 C0.99 1.485 0.99 1.485 2 3 C1.34 3 0.68 3 0 3 C0 2.01 0 1.02 0 0 Z " fill="#080808" transform="translate(316,444)"/>
<path d="M0 0 C0.33 0.99 0.66 1.98 1 3 C0.34 2.67 -0.32 2.34 -1 2 C-0.67 1.34 -0.34 0.68 0 0 Z " fill="#080808" transform="translate(205,421)"/>
<path d="M0 0 C0.66 0 1.32 0 2 0 C1.67 0.99 1.34 1.98 1 3 C0.67 2.01 0.34 1.02 0 0 Z " fill="#070807" transform="translate(291,383)"/>
<path d="M0 0 C0.66 0.66 1.32 1.32 2 2 C1.34 2 0.68 2 0 2 C0 1.34 0 0.68 0 0 Z " fill="#080808" transform="translate(569,542)"/>
<path d="M0 0 C0.66 0.66 1.32 1.32 2 2 C1.34 2 0.68 2 0 2 C0 1.34 0 0.68 0 0 Z " fill="#060606" transform="translate(536,507)"/>
<path d="M0 0 C0.66 0.66 1.32 1.32 2 2 C1.34 2 0.68 2 0 2 C0 1.34 0 0.68 0 0 Z " fill="#060606" transform="translate(587,502)"/>
<path d="M0 0 C0.66 0 1.32 0 2 0 C1.67 0.66 1.34 1.32 1 2 C0.67 1.34 0.34 0.68 0 0 Z " fill="#090909" transform="translate(532,503)"/>
<path d="" fill="#090A09" transform="translate(0,0)"/>
<path d="M0 0 C0.66 0.66 1.32 1.32 2 2 C1.34 2 0.68 2 0 2 C0 1.34 0 0.68 0 0 Z " fill="#090909" transform="translate(523,493)"/>
<path d="" fill="#080808" transform="translate(0,0)"/>
<path d="" fill="#060606" transform="translate(0,0)"/>
<path d="M0 0 C0.66 0.66 1.32 1.32 2 2 C1.34 2 0.68 2 0 2 C0 1.34 0 0.68 0 0 Z " fill="#070707" transform="translate(280,354)"/>
<path d="" fill="#090909" transform="translate(0,0)"/>
<path d="" fill="#040404" transform="translate(0,0)"/>
<path d="" fill="#090909" transform="translate(0,0)"/>
<path d="" fill="#080808" transform="translate(0,0)"/>
<path d="" fill="#060607" transform="translate(0,0)"/>
<path d="M0 0 C2 1 2 1 2 1 Z " fill="#090909" transform="translate(341,510)"/>
<path d="" fill="#0B0B0B" transform="translate(0,0)"/>
<path d="" fill="#060607" transform="translate(0,0)"/>
<path d="" fill="#0A0A0A" transform="translate(0,0)"/>
<path d="" fill="#090909" transform="translate(0,0)"/>
<path d="" fill="#090909" transform="translate(0,0)"/>
<path d="" fill="#090909" transform="translate(0,0)"/>
<path d="" fill="#060606" transform="translate(0,0)"/>
<path d="" fill="#080808" transform="translate(0,0)"/>
<path d="" fill="#070807" transform="translate(0,0)"/>
<path d="" fill="#060606" transform="translate(0,0)"/>
<path d="" fill="#040404" transform="translate(0,0)"/>
<path d="" fill="#0A0A0A" transform="translate(0,0)"/>
<path d="" fill="#090909" transform="translate(0,0)"/>
<path d="" fill="#090909" transform="translate(0,0)"/>
<path d="" fill="#050605" transform="translate(0,0)"/>
<path d="" fill="#0A0A0A" transform="translate(0,0)"/>
<path d="" fill="#080808" transform="translate(0,0)"/>
<path d="" fill="#090909" transform="translate(0,0)"/>
<path d="" fill="#080808" transform="translate(0,0)"/>
<path d="" fill="#080808" transform="translate(0,0)"/>
<path d="" fill="#090909" transform="translate(0,0)"/>
<path d="" fill="#040404" transform="translate(0,0)"/>
<path d="" fill="#020202" transform="translate(0,0)"/>
<path d="" fill="#090909" transform="translate(0,0)"/>
<path d="" fill="#090909" transform="translate(0,0)"/>
<path d="" fill="#090909" transform="translate(0,0)"/>
<path d="" fill="#090909" transform="translate(0,0)"/>
<path d="" fill="#090909" transform="translate(0,0)"/>
<path d="" fill="#090909" transform="translate(0,0)"/>
<path d="" fill="#090909" transform="translate(0,0)"/>
<path d="" fill="#090909" transform="translate(0,0)"/>
<path d="" fill="#020202" transform="translate(0,0)"/>
<path d="" fill="#0B0C0B" transform="translate(0,0)"/>
<path d="" fill="#0B0C0B" transform="translate(0,0)"/>
<path d="" fill="#090909" transform="translate(0,0)"/>
<path d="" fill="#020202" transform="translate(0,0)"/>
<path d="" fill="#090909" transform="translate(0,0)"/>
<path d="" fill="#090909" transform="translate(0,0)"/>
<path d="" fill="#090909" transform="translate(0,0)"/>
<path d="" fill="#090909" transform="translate(0,0)"/>
<path d="" fill="#090909" transform="translate(0,0)"/>
<path d="" fill="#040404" transform="translate(0,0)"/>
<path d="" fill="#0B0C0B" transform="translate(0,0)"/>
<path d="" fill="#020202" transform="translate(0,0)"/>
<path d="" fill="#0B0C0B" transform="translate(0,0)"/>
<path d="" fill="#090909" transform="translate(0,0)"/>
<path d="" fill="#0B0C0B" transform="translate(0,0)"/>
<path d="" fill="#0B0C0B" transform="translate(0,0)"/>
<path d="" fill="#0B0C0B" transform="translate(0,0)"/>
<path d="" fill="#000000" transform="translate(0,0)"/>
<path d="" fill="#0B0C0B" transform="translate(0,0)"/>
<path d="" fill="#090909" transform="translate(0,0)"/>
<path d="" fill="#0B0C0B" transform="translate(0,0)"/>
<path d="" fill="#0B0C0B" transform="translate(0,0)"/>
<path d="" fill="#000000" transform="translate(0,0)"/>
<path d="" fill="#040305" transform="translate(0,0)"/>
<path d="" fill="#090909" transform="translate(0,0)"/>
<path d="" fill="#090909" transform="translate(0,0)"/>
<path d="" fill="#070707" transform="translate(0,0)"/>
<path d="" fill="#090909" transform="translate(0,0)"/>
<path d="" fill="#090909" transform="translate(0,0)"/>
<path d="" fill="#090909" transform="translate(0,0)"/>
<path d="" fill="#020202" transform="translate(0,0)"/>
<path d="" fill="#090909" transform="translate(0,0)"/>
<path d="" fill="#090909" transform="translate(0,0)"/>
<path d="" fill="#090909" transform="translate(0,0)"/>
<path d="" fill="#090909" transform="translate(0,0)"/>
<path d="" fill="#070707" transform="translate(0,0)"/>
<path d="" fill="#090909" transform="translate(0,0)"/>
<path d="" fill="#090909" transform="translate(0,0)"/>
<path d="" fill="#090909" transform="translate(0,0)"/>
<path d="" fill="#090909" transform="translate(0,0)"/>
<path d="" fill="#0B0C0B" transform="translate(0,0)"/>
<path d="" fill="#090909" transform="translate(0,0)"/>
<path d="" fill="#090909" transform="translate(0,0)"/>
<path d="" fill="#090909" transform="translate(0,0)"/>
<path d="" fill="#090909" transform="translate(0,0)"/>
<path d="" fill="#090909" transform="translate(0,0)"/>
<path d="" fill="#090909" transform="translate(0,0)"/>
<path d="" fill="#090909" transform="translate(0,0)"/>
<path d="" fill="#090909" transform="translate(0,0)"/>
<path d="" fill="#000000" transform="translate(0,0)"/>
<path d="" fill="#020202" transform="translate(0,0)"/>
<path d="" fill="#090909" transform="translate(0,0)"/>
<path d="" fill="#0B0C0B" transform="translate(0,0)"/>
<path d="" fill="#090909" transform="translate(0,0)"/>
<path d="" fill="#040305" transform="translate(0,0)"/>
<path d="" fill="#090909" transform="translate(0,0)"/>
<path d="" fill="#090909" transform="translate(0,0)"/>
<path d="" fill="#090909" transform="translate(0,0)"/>
<path d="" fill="#090909" transform="translate(0,0)"/>
<path d="" fill="#090909" transform="translate(0,0)"/>
<path d="" fill="#0B0C0B" transform="translate(0,0)"/>
<path d="" fill="#090909" transform="translate(0,0)"/>
<path d="" fill="#090909" transform="translate(0,0)"/>
<path d="" fill="#090909" transform="translate(0,0)"/>
<path d="" fill="#090909" transform="translate(0,0)"/>
<path d="" fill="#090909" transform="translate(0,0)"/>
<path d="" fill="#090909" transform="translate(0,0)"/>
<path d="" fill="#090909" transform="translate(0,0)"/>
<path d="" fill="#0B0C0B" transform="translate(0,0)"/>
<path d="" fill="#090909" transform="translate(0,0)"/>
<path d="" fill="#090909" transform="translate(0,0)"/>
<path d="" fill="#090909" transform="translate(0,0)"/>
<path d="" fill="#090909" transform="translate(0,0)"/>
<path d="" fill="#090909" transform="translate(0,0)"/>
<path d="" fill="#090909" transform="translate(0,0)"/>
<path d="" fill="#090909" transform="translate(0,0)"/>
<path d="" fill="#090909" transform="translate(0,0)"/>
<path d="" fill="#090909" transform="translate(0,0)"/>
<path d="" fill="#090909" transform="translate(0,0)"/>
<path d="" fill="#090909" transform="translate(0,0)"/>
<path d="" fill="#090909" transform="translate(0,0)"/>
<path d="" fill="#090909" transform="translate(0,0)"/>
<path d="" fill="#090909" transform="translate(0,0)"/>
<path d="" fill="#090909" transform="translate(0,0)"/>
<path d="" fill="#090909" transform="translate(0,0)"/>
<path d="" fill="#0B0C0B" transform="translate(0,0)"/>
<path d="" fill="#090909" transform="translate(0,0)"/>
<path d="" fill="#090909" transform="translate(0,0)"/>
<path d="" fill="#090909" transform="translate(0,0)"/>
<path d="" fill="#020202" transform="translate(0,0)"/>
<path d="" fill="#090909" transform="translate(0,0)"/>
<path d="" fill="#090909" transform="translate(0,0)"/>
<path d="" fill="#090909" transform="translate(0,0)"/>
<path d="" fill="#090909" transform="translate(0,0)"/>
<path d="" fill="#090909" transform="translate(0,0)"/>
<path d="" fill="#090909" transform="translate(0,0)"/>
<path d="" fill="#070707" transform="translate(0,0)"/>
<path d="" fill="#0B0C0B" transform="translate(0,0)"/>
<path d="" fill="#090909" transform="translate(0,0)"/>
<path d="" fill="#090909" transform="translate(0,0)"/>
<path d="" fill="#070707" transform="translate(0,0)"/>
<path d="" fill="#090909" transform="translate(0,0)"/>
<path d="" fill="#090909" transform="translate(0,0)"/>
<path d="" fill="#020202" transform="translate(0,0)"/>
</svg>
